<svg width="900" height="150" viewBox="0 0 900 150" xmlns="http://www.w3.org/2000/svg">

<defs>
  <filter id="glow">
    <feGaussianBlur stdDeviation="2.5" result="blur"></feGaussianBlur>
    <feMerge>
      <feMergeNode in="blur"></feMergeNode>
      <feMergeNode in="SourceGraphic"></feMergeNode>
    </feMerge>
  </filter>
</defs>

<rect width="900" height="150" rx="12" fill="#080808"></rect>

<!-- HTML -->
<g transform="translate(45 28)" fill="none" stroke="#fff" stroke-width="2">
  <path d="M5 5 L15 5 L12 25 L8 25 Z"></path>
</g>
<text x="75" y="55" fill="#fff" font-family="monospace" font-size="15">HTML</text>

<!-- CSS -->
<g transform="translate(190 28)" fill="none" stroke="#fff" stroke-width="2">
  <path d="M5 5 L25 5 L20 25 L10 25 Z"></path>
</g>
<text x="220" y="55" fill="#fff" font-family="monospace" font-size="15">CSS</text>

<!-- JavaScript -->
<g transform="translate(330 28)" fill="none" stroke="#fff" stroke-width="2">
  <rect x="4" y="4" width="23" height="23"></rect>
  <path d="M10 20 L10 12 L15 17 L20 12 L20 20"></path>
</g>
<text x="365" y="55" fill="#fff" font-family="monospace" font-size="15">JavaScript</text>

<!-- Python -->
<g transform="translate(515 28)" fill="none" stroke="#fff" stroke-width="2">
  <path d="M15 4 C5 4 5 9 5 14 C5 19 10 19 15 19 H22 C27 19 27 14 27 9 C27 4 22 4 15 4Z"></path>
  <circle cx="11" cy="9" r="1" fill="#fff"></circle>
</g>
<text x="550" y="55" fill="#fff" font-family="monospace" font-size="15">Python</text>

<!-- Swift -->
<g transform="translate(665 28)" fill="none" stroke="#fff" stroke-width="2">
  <path d="M5 7 C10 12 14 15 21 17 C18 10 15 7 12 4"></path>
  <path d="M7 20 C13 24 21 22 26 17"></path>
</g>
<text x="700" y="55" fill="#fff" font-family="monospace" font-size="15">Swift</text>

<!-- Linux -->
<g transform="translate(790 28)" fill="none" stroke="#fff" stroke-width="2">
  <circle cx="15" cy="15" r="12"></circle>
  <circle cx="10" cy="13" r="2" fill="#fff"></circle>
  <circle cx="20" cy="13" r="2" fill="#fff"></circle>
  <path d="M9 20 Q15 24 21 20"></path>
</g>
<text x="825" y="55" fill="#fff" font-family="monospace" font-size="15">Linux</text>

<line x1="45" y1="85" x2="855" y2="85" stroke="#222"></line>

<text x="450" y="115" fill="#666" font-family="monospace" font-size="13" text-anchor="middle">
  WEB · SYSTEMS · LINUX · DEVELOPMENT
</text>

</svg>